<svg xmlns="http://www.w3.org/2000/svg" xmlns:xlink="http://www.w3.org/1999/xlink" width="50" zoomAndPan="magnify" viewBox="0 0 37.5 37.499999" height="50" preserveAspectRatio="xMidYMid meet" version="1.0"><defs><g/></defs><path fill="#ffffff" d="M 6.445312 10.628906 L 30.558594 10.628906 C 31.570312 10.628906 32.535156 11.03125 33.25 11.746094 C 33.964844 12.457031 34.367188 13.425781 34.367188 14.433594 L 34.367188 22.046875 C 34.367188 23.058594 33.964844 24.023438 33.25 24.738281 C 32.535156 25.453125 31.570312 25.851562 30.558594 25.851562 L 6.445312 25.851562 C 4.34375 25.851562 2.640625 24.148438 2.640625 22.046875 L 2.640625 14.433594 C 2.640625 12.332031 4.34375 10.628906 6.445312 10.628906 Z M 6.445312 10.628906 " fill-opacity="1" fill-rule="nonzero"/><g fill="#00bf63" fill-opacity="1"><g transform="translate(5.993323, 20.685571)"><g><path d="M 3.921875 0 L 1.953125 -2.59375 L 1.953125 0 L 0.515625 0 L 0.515625 -5.875 L 1.953125 -5.875 L 1.953125 -3.296875 L 3.90625 -5.875 L 5.59375 -5.875 L 3.3125 -3 L 5.671875 0 Z M 3.921875 0 "/></g></g></g><g fill="#00bf63" fill-opacity="1"><g transform="translate(11.834214, 20.685571)"><g><path d="M 1.953125 -3.890625 C 2.117188 -4.148438 2.328125 -4.351562 2.578125 -4.5 C 2.828125 -4.644531 3.109375 -4.71875 3.421875 -4.71875 L 3.421875 -3.203125 L 3.015625 -3.203125 C 2.660156 -3.203125 2.394531 -3.125 2.21875 -2.96875 C 2.039062 -2.820312 1.953125 -2.554688 1.953125 -2.171875 L 1.953125 0 L 0.515625 0 L 0.515625 -4.671875 L 1.953125 -4.671875 Z M 1.953125 -3.890625 "/></g></g></g><g fill="#00bf63" fill-opacity="1"><g transform="translate(15.42087, 20.685571)"><g><path d="M 5.296875 -4.671875 L 2.359375 2.21875 L 0.828125 2.21875 L 1.890625 -0.15625 L -0.015625 -4.671875 L 1.59375 -4.671875 L 2.671875 -1.75 L 3.75 -4.671875 Z M 5.296875 -4.671875 "/></g></g></g><g fill="#00bf63" fill-opacity="1"><g transform="translate(20.717063, 20.685571)"><g><path d="M 4.125 -3.53125 L 4.125 -2.34375 L 0.4375 -2.34375 L 0.4375 -3.53125 Z M 4.125 -3.53125 "/></g></g></g><g fill="#00bf63" fill-opacity="1"><g transform="translate(25.577491, 20.685571)"><g><path d="M 1.375 -3.28125 C 0.851562 -3.5625 0.59375 -4 0.59375 -4.59375 C 0.59375 -4.894531 0.671875 -5.171875 0.828125 -5.421875 C 0.984375 -5.671875 1.21875 -5.867188 1.53125 -6.015625 C 1.851562 -6.160156 2.25 -6.234375 2.71875 -6.234375 C 3.175781 -6.234375 3.5625 -6.160156 3.875 -6.015625 C 4.195312 -5.867188 4.4375 -5.671875 4.59375 -5.421875 C 4.75 -5.171875 4.828125 -4.894531 4.828125 -4.59375 C 4.828125 -4.289062 4.753906 -4.023438 4.609375 -3.796875 C 4.460938 -3.578125 4.269531 -3.40625 4.03125 -3.28125 C 4.332031 -3.132812 4.5625 -2.929688 4.71875 -2.671875 C 4.882812 -2.421875 4.96875 -2.128906 4.96875 -1.796875 C 4.96875 -1.398438 4.867188 -1.054688 4.671875 -0.765625 C 4.472656 -0.472656 4.203125 -0.25 3.859375 -0.09375 C 3.515625 0.0507812 3.132812 0.125 2.71875 0.125 C 2.289062 0.125 1.90625 0.0507812 1.5625 -0.09375 C 1.226562 -0.25 0.957031 -0.472656 0.75 -0.765625 C 0.550781 -1.054688 0.453125 -1.398438 0.453125 -1.796875 C 0.453125 -2.140625 0.53125 -2.4375 0.6875 -2.6875 C 0.851562 -2.945312 1.082031 -3.144531 1.375 -3.28125 Z M 3.4375 -4.375 C 3.4375 -4.601562 3.367188 -4.78125 3.234375 -4.90625 C 3.109375 -5.03125 2.9375 -5.09375 2.71875 -5.09375 C 2.5 -5.09375 2.320312 -5.03125 2.1875 -4.90625 C 2.0625 -4.78125 2 -4.601562 2 -4.375 C 2 -4.15625 2.0625 -3.984375 2.1875 -3.859375 C 2.320312 -3.734375 2.5 -3.671875 2.71875 -3.671875 C 2.925781 -3.671875 3.097656 -3.734375 3.234375 -3.859375 C 3.367188 -3.984375 3.4375 -4.15625 3.4375 -4.375 Z M 2.71875 -2.65625 C 2.445312 -2.65625 2.226562 -2.582031 2.0625 -2.4375 C 1.90625 -2.300781 1.828125 -2.109375 1.828125 -1.859375 C 1.828125 -1.617188 1.90625 -1.425781 2.0625 -1.28125 C 2.226562 -1.132812 2.445312 -1.0625 2.71875 -1.0625 C 2.976562 -1.0625 3.1875 -1.132812 3.34375 -1.28125 C 3.5 -1.425781 3.578125 -1.617188 3.578125 -1.859375 C 3.578125 -2.109375 3.492188 -2.300781 3.328125 -2.4375 C 3.171875 -2.582031 2.96875 -2.65625 2.71875 -2.65625 Z M 2.71875 -2.65625 "/></g></g></g></svg>