<?xml version="1.0" encoding="utf-8"?><!-- Uploaded to: SVG Repo, www.svgrepo.com, Generator: SVG Repo Mixer Tools -->
<svg width="100px" height="100px" viewBox="-600.225 -1735.25 3684.109 3684.109" xmlns="http://www.w3.org/2000/svg"><path fill="url(#b)" d="M-950.268-276.198c-211.412 0-382.956 171.531-382.956 382.956s171.544 383.089 382.956 383.089c211.424 0 383.064-171.664 383.064-383.089.001-211.425-171.651-382.956-383.064-382.956zm.109 8.888c2.213 0 4.522.701 6.312 1.995a11.556 11.556 0 0 1 4.208 5.623v.109l.121.133 12.758 46.338c166.078 12.044 297.292 150.744 297.292 319.869 0 49.918-11.452 97.224-31.827 139.401l32.891 33.134.109.108.121.12c1.621 1.898 2.479 4.088 2.685 6.312.23 2.262-.218 4.632-1.391 6.663a11.088 11.088 0 0 1-5.03 4.57 11.096 11.096 0 0 1-6.784.822h-.363l-45.177-11.827c-57.681 85.349-155.388 141.506-266.021 141.506-110.658 0-208.269-56.157-265.938-141.506l-45.044 11.947h-.363c-2.527.46-4.837-.048-6.784-.942-2.152-.992-3.895-2.588-5.03-4.57-1.101-1.888-1.633-4.281-1.391-6.53.193-2.237 1.052-4.426 2.685-6.336l.121-.109.121-.12 32.771-33.122c-20.424-42.189-31.839-89.544-31.839-139.521 0-169.209 131.239-307.946 297.414-319.869l12.516-46.242.109-.242v-.108c.798-2.262 2.237-4.221 4.208-5.623 2.017-1.439 4.315-1.983 6.54-1.983zm0 4.68c-1.367 0-2.757.387-3.87 1.173a6.728 6.728 0 0 0-2.442 3.276l-27.861 102.992c-.702 2.007-1.004 4.329-.351 6.336.665 2.007 1.898 3.712 3.627 4.897 5.006 3.458 6.881 9.952 9.251 16.275 2.358 6.301 2.733 11.742 1.052 18.261-1.668 6.529-5.538 12.467-10.653 16.845-9.178 7.872-17.329 17.389-22.468 28.55-5.151 11.187-6.893 23.146-6.893 35.25V.948l-143.973-83.1-15.914 27.377 159.886 92.229v33.46l-28.804 16.627-159.888-92.349-15.926 27.499 143.961 83.22-25.745 14.874c-10.472 6.034-19.928 13.593-27.039 23.63-7.123 10.035-11.246 21.936-13.458 33.835-1.246 6.602-4.438 12.816-9.251 17.558-4.813 4.704-9.734 6.941-16.385 8.054-6.639 1.112-13.132 2.963-18.61.352a9.379 9.379 0 0 0-6.095-.689c-2.068.411-4.124 1.523-5.502 3.146l-75.13 75.952c-.896 1.039-1.403 2.405-1.536 3.761-.145 1.343.145 2.562.81 3.749a6.806 6.806 0 0 0 2.927 2.709c1.245.556 2.648.798 3.99.567l103.221-27.39c2.08-.387 4.208-1.343 5.623-2.927 1.391-1.584 2.285-3.507 2.467-5.61.472-6.07 5.175-10.848 9.468-16.035 4.293-5.212 8.84-8.271 15.333-10.061 6.494-1.813 13.423-1.402 19.771.822 11.415 4.003 23.798 6.287 36.06 5.127 12.237-1.124 23.472-5.515 33.932-11.562l25.757-14.886v166.198h31.718V192.639l28.913-16.736 28.792 16.615v184.566h31.839V210.886l25.624 14.886c10.484 6.022 21.803 10.438 34.052 11.562 12.262 1.16 24.646-1.245 36.061-5.261 6.348-2.226 13.397-2.624 19.892-.811 6.469 1.813 10.811 4.97 15.103 10.182 4.269 5.188 9.106 9.868 9.578 15.914.181 2.104 1.052 4.039 2.467 5.623 1.403 1.584 3.434 2.866 5.502 3.277l103.342 27.051c1.342.241 2.757.097 3.99-.46a6.636 6.636 0 0 0 2.926-2.721c.665-1.161.931-2.491.81-3.857-.133-1.366-.641-2.721-1.523-3.749l-75.263-75.723c-1.367-1.608-3.326-2.963-5.381-3.374-2.068-.437-4.184-.229-6.095.688-5.49 2.612-11.959.884-18.598-.229-6.651-1.137-11.572-3.482-16.385-8.199-4.812-4.716-7.993-10.932-9.25-17.534-2.225-11.923-6.349-23.82-13.459-33.834-7.11-10.062-16.675-17.485-27.147-23.531l-25.745-14.874 144.07-83.208-15.926-27.391-159.875 92.351-28.804-16.627V37.565l159.886-92.217-15.914-27.51L-889.577.937v-29.735c0-12.092-1.862-24.052-7.014-35.236-5.151-11.173-13.411-20.678-22.589-28.55-5.127-4.391-8.852-10.315-10.532-16.846-1.681-6.529-1.197-11.946 1.161-18.26 2.358-6.312 4.015-12.83 9.021-16.276 1.741-1.196 3.083-2.901 3.749-4.909.665-1.995.702-4.329 0-6.312l-28.32-103.003c-.459-1.282-1.354-2.491-2.455-3.29a5.998 5.998 0 0 0-3.603-1.15zm0 199.09c7.558 0 15.006 3.083 20.364 8.429 5.356 5.357 8.428 12.818 8.428 20.375V19.33l-28.792 16.627-28.913-16.749v-53.957c0-7.559 3.083-15.006 8.428-20.363 5.357-5.357 12.927-8.428 20.485-8.428zm0 136.125l28.792 16.614v33.483l-28.671 16.604-29.021-16.726V89.32l28.9-16.735zm-89.532 51.622l28.901 16.748v33.46l-46.701 26.93c-6.542 3.772-14.572 4.74-21.888 2.806-7.316-1.959-13.785-6.917-17.558-13.459-3.785-6.528-4.776-14.596-2.817-21.875 1.959-7.328 6.796-13.785 13.35-17.559l46.713-27.051zm178.956 0l46.81 27.051c6.554 3.772 11.5 10.108 13.459 17.426 1.971 7.315.737 15.466-3.047 21.996-3.773 6.53-10.134 11.391-17.45 13.35-7.292 1.937-15.333.943-21.875-2.829l-46.713-26.918v-33.472l28.816-16.604z"/><path fill="#c1a881" d="M-484.116-229.279L-336.588 221.2v220.034h145.557V221.2l139.208-450.479h-131.578l-82.664 292.734-80.294-292.734h-137.757zM424.485-229.279v670.514h121.07V6.391l69.387 434.845h91.418L775.603 6.391v434.845h123.344v-670.514h-184.87L661.341 89.684l-50.812-318.962-186.044-.001zM1460.543-229.279v670.514h134.951v-282.6h114.951v282.601h131.735v-670.514h-131.735V37.469h-114.951v-266.748h-134.951zM2033.906-229.412l-116.607 670.623h131.615l25.949-163.816h100.852l25.418 163.816h132.752L2217.24-229.412h-183.334zm92.484 147.068l34.307 242.61h-70.064l35.757-242.61zM1088.772-229.412L972.165 441.211h131.613l25.951-163.816h100.862l25.406 163.816h132.763l-116.644-670.623h-183.344zm92.484 147.068l34.318 242.61h-70.076l35.758-242.61zM53.26-229.412L-63.36 441.211H68.255l25.938-163.816h100.863l25.406 163.816h132.763L236.594-229.412H53.26zm92.471 147.068l34.33 242.61h-70.088l35.758-242.61z"/></svg>